# xmcd CD database file
#
# Track frame offsets:
#	150
#	26677
#	59502
#	87930
#	118322
#	146510
#	165632
#	188482
#	220720
#
# Disc length: 3286 seconds
#
# Revision: 0
# Processed by: cddbd v1.4PL0 Copyright (c) Steve Scherf et al.
# Submitted via: CDex 1.51
#
DISCID=7b0cd409
DTITLE=Paul Chambers - Mosaic Select 5: Paul Chambers [CD3]
DYEAR=1900
DGENRE=Jazz
TTITLE0=Yesterdays
TTITLE1=You'd Be So Nice To Come Home To
TTITLE2=Chasin' The Bird
TTITLE3=Dear Old Stockholm
TTITLE4=The Theme
TTITLE5=Confessin' (I'm Confessin' That I Love You)
TTITLE6=Chamber Mates
TTITLE7=I've Got My Love To Keep Me Warm
TTITLE8=What Is This Thing Called Love
EXTD=
EXTT0=
EXTT1=
EXTT2=
EXTT3=
EXTT4=
EXTT5=
EXTT6=
EXTT7=
EXTT8=
PLAYORDER=
